<?xml version="1.0" standalone="no"?>
<!DOCTYPE svg PUBLIC "-//W3C//DTD SVG 20010904//EN"
 "http://www.w3.org/TR/2001/REC-SVG-20010904/DTD/svg10.dtd">
<svg version="1.0" xmlns="http://www.w3.org/2000/svg"
 width="195.000000pt" height="220.000000pt" viewBox="0 0 195.000000 220.000000"
 preserveAspectRatio="xMidYMid meet">

<g transform="translate(0.000000,220.000000) scale(0.100000,-0.100000)"
fill="#000000" stroke="none">
<path d="M895 1980 c-215 -34 -407 -154 -545 -341 -104 -139 -152 -287 -153
-469 0 -130 12 -201 54 -311 54 -140 149 -262 284 -364 140 -105 293 -155 477
-155 255 0 445 81 613 262 115 123 183 258 210 416 49 278 -30 518 -242 730
-93 94 -112 107 -205 151 -57 27 -133 56 -170 65 -83 21 -243 28 -323 16z
m355 -145 c238 -88 414 -284 466 -520 17 -77 17 -233 0 -311 -42 -196 -193
-386 -382 -482 -103 -53 -172 -67 -314 -66 -118 1 -145 4 -215 27 -87 29 -178
80 -250 140 -92 77 -189 231 -222 351 -24 88 -28 231 -9 326 49 252 240 463
491 543 73 23 97 26 235 22 107 -2 136 -6 200 -30z"/>
<path d="M670 1508 c-19 -21 -20 -34 -20 -348 l0 -327 23 -21 c20 -19 35 -22
114 -22 74 0 95 3 114 19 l24 19 -2 334 c-2 398 9 368 -139 368 -83 0 -95 -2
-114 -22z"/>
<path d="M1142 1514 c-22 -15 -22 -15 -22 -350 0 -403 -10 -374 135 -374 145
0 135 -28 135 370 0 398 10 370 -133 370 -68 0 -99 -4 -115 -16z"/>
</g>
</svg>
