<?xml version="1.0" standalone="no"?>
<!DOCTYPE svg PUBLIC "-//W3C//DTD SVG 20010904//EN"
 "http://www.w3.org/TR/2001/REC-SVG-20010904/DTD/svg10.dtd">
<svg version="1.0" xmlns="http://www.w3.org/2000/svg"
 width="220.000000pt" height="190.000000pt" viewBox="0 0 220.000000 190.000000"
 preserveAspectRatio="xMidYMid meet">

<g transform="translate(0.000000,190.000000) scale(0.100000,-0.100000)"
fill="#000000" stroke="none">
<path d="M996 1869 c-46 -7 -58 -16 -165 -125 -64 -64 -102 -108 -86 -97 110
74 222 106 375 106 136 0 208 -16 329 -74 151 -73 302 -248 352 -409 118 -377
-76 -767 -442 -891 -336 -114 -694 24 -857 329 -65 123 -85 210 -80 361 5 140
28 229 88 332 30 52 27 50 -84 -61 l-115 -115 -10 -65 c-15 -90 -14 -153 4
-255 57 -324 296 -581 620 -666 111 -29 288 -29 400 0 545 142 798 751 514
1235 -57 97 -202 239 -299 293 -168 94 -370 132 -544 102z"/>
<path d="M845 1831 c-219 -78 -412 -266 -495 -484 -17 -43 -30 -83 -28 -87 2
-5 138 126 302 291 165 164 293 299 285 298 -8 0 -37 -8 -64 -18z"/>
<path d="M955 1480 c-11 -5 -87 -33 -169 -63 -87 -31 -154 -61 -160 -71 -9
-15 -3 -25 37 -61 52 -47 53 -52 33 -110 -93 -272 95 -574 385 -617 228 -34
466 123 524 347 53 207 -35 421 -219 530 -71 42 -108 44 -141 10 -47 -46 -30
-102 43 -139 58 -29 117 -92 145 -155 16 -35 21 -66 21 -126 0 -71 -4 -87 -34
-143 -57 -107 -150 -162 -274 -162 -84 0 -146 23 -205 76 -74 66 -101 129
-101 230 0 46 5 86 10 89 6 4 26 -7 46 -24 37 -33 65 -39 82 -18 12 15 65 355
60 388 -2 19 -10 24 -33 26 -16 1 -39 -2 -50 -7z"/>
</g>
</svg>
