<svg width="300" height="300" viewBox="0 0 300 300" fill="none" xmlns="http://www.w3.org/2000/svg">
<g clip-path="url(#clip0_426_30)">
<rect width="300" height="300" fill="white"/>
<rect x="2.5" y="2.5" width="295" height="295" stroke="black" stroke-width="5"/>
<rect width="150" height="300" fill="black"/>
<path d="M219 196H190.273V102.909H220.273C229.303 102.909 237.03 104.773 243.455 108.5C249.879 112.197 254.803 117.515 258.227 124.455C261.652 131.364 263.364 139.636 263.364 149.273C263.364 158.97 261.636 167.318 258.182 174.318C254.727 181.288 249.697 186.652 243.091 190.409C236.485 194.136 228.455 196 219 196ZM201.545 186H218.273C225.97 186 232.348 184.515 237.409 181.545C242.47 178.576 246.242 174.348 248.727 168.864C251.212 163.379 252.455 156.848 252.455 149.273C252.455 141.758 251.227 135.288 248.773 129.864C246.318 124.409 242.652 120.227 237.773 117.318C232.894 114.379 226.818 112.909 219.545 112.909H201.545V186Z" fill="black"/>
</g>
<defs>
<clipPath id="clip0_426_30">
<rect width="300" height="300" fill="white"/>
</clipPath>
</defs>
</svg>
