<?xml version="1.0" standalone="no"?>
<!DOCTYPE svg PUBLIC "-//W3C//DTD SVG 20010904//EN"
 "http://www.w3.org/TR/2001/REC-SVG-20010904/DTD/svg10.dtd">
<svg version="1.0" xmlns="http://www.w3.org/2000/svg"
 width="228.000000pt" height="214.000000pt" viewBox="0 0 228.000000 214.000000"
 preserveAspectRatio="xMidYMid meet">

<g transform="translate(0.000000,214.000000) scale(0.100000,-0.100000)"
fill="#000000" stroke="none">
<path d="M1000 1850 c-80 -20 -210 -75 -263 -112 -198 -140 -303 -288 -363
-518 -25 -96 -23 -281 5 -385 97 -368 426 -625 799 -625 168 0 315 39 441 117
247 153 401 428 401 714 0 387 -284 735 -663 813 -103 21 -262 20 -357 -4z
m375 -125 c283 -76 494 -332 520 -631 8 -95 -13 -235 -49 -325 -36 -86 -109
-191 -176 -251 l-59 -53 42 -45 42 -45 -47 44 c-44 41 -49 43 -65 29 -62 -55
-225 -108 -353 -115 -207 -12 -393 57 -539 200 -139 136 -211 308 -211 507 0
113 18 196 64 295 98 212 298 368 521 406 70 11 238 3 310 -16z"/>
<path d="M893 1476 l-28 -24 -3 -398 c-2 -273 1 -407 8 -425 14 -34 51 -53 87
-46 21 4 297 157 332 184 3 2 -13 22 -35 46 l-39 42 40 -37 c23 -21 44 -38 48
-38 5 0 81 43 171 96 157 93 196 126 196 167 0 34 -58 80 -213 168 -89 51
-196 113 -237 139 -142 88 -257 150 -278 150 -12 0 -34 -11 -49 -24z"/>
</g>
</svg>
